<svg width="840" height="750" viewBox="0 0 840 750" xmlns="http://www.w3.org/2000/svg" font-family="system-ui,-apple-system,sans-serif">
<rect width="840" height="750" fill="#F0EFEB"/>
<rect x="20" y="14" width="120" height="18" rx="3" fill="#3A3835" stroke="none" stroke-width="0.75"/><text x="26" y="23" font-size="9" fill="#FFFFFF" text-anchor="start" font-weight="500" dominant-baseline="central" >Screen 3/3</text><text x="148" y="23" font-size="11" fill="#3A3835" text-anchor="start" font-weight="500" dominant-baseline="central" >Admin view — Portfolio dashboard</text><text x="148" y="38" font-size="10" fill="#888684" text-anchor="start" font-weight="400" dominant-baseline="central" >Target: EcoComply compliance manager. Goal: full portfolio status at one glance, act on outliers.</text>
<rect x="20" y="46" width="800" height="690" rx="6" fill="#FFFFFF" stroke="#C8C6C2" stroke-width="1"/>
<rect x="20" y="46" width="800" height="46" rx="0" fill="#FAFAF8" stroke="#DDDCD8" stroke-width="0.5"/><rect x="34" y="57" width="26" height="24" rx="4" fill="#3A3835" stroke="none" stroke-width="0.75"/><text x="47" y="69" font-size="13" fill="#FFFFFF" text-anchor="middle" font-weight="500" dominant-baseline="central" >R</text><text x="66" y="69" font-size="12" fill="#3A3835" text-anchor="start" font-weight="500" dominant-baseline="central" >Regulatory Radar</text><text x="194" y="69" font-size="11" fill="#3A3835" text-anchor="start" font-weight="400" dominant-baseline="central" >Portfolio</text><line x1="194" y1="88" x2="249.8" y2="88" stroke="#3A3835" stroke-width="1.5" /><text x="274.5" y="69" font-size="11" fill="#888684" text-anchor="start" font-weight="400" dominant-baseline="central" >Review queue</text><text x="374.5" y="69" font-size="11" fill="#888684" text-anchor="start" font-weight="400" dominant-baseline="central" >Alert log</text><text x="455.0" y="69" font-size="11" fill="#888684" text-anchor="start" font-weight="400" dominant-baseline="central" >Regulation library</text><rect x="690" y="59" width="70" height="20" rx="3" fill="#EDECEA" stroke="#BEBCB8" stroke-width="0.5"/><text x="725" y="69" font-size="10" fill="#555453" text-anchor="middle" font-weight="400" dominant-baseline="central" >Admin mode</text><circle cx="798" cy="69" r="14" fill="#DDDCD8"/><text x="798" y="69" font-size="10" fill="#555453" text-anchor="middle" font-weight="500" dominant-baseline="central" >EC</text>
<rect x="36" y="108" width="246" height="58" rx="4" fill="#F5F4F1" stroke="#DDDCD8" stroke-width="0.75"/>
<text x="48" y="122" font-size="10" fill="#888684" text-anchor="start" font-weight="400" dominant-baseline="central" >Critical gaps</text>
<text x="48" y="142" font-size="20" fill="#1A1917" text-anchor="start" font-weight="500" dominant-baseline="central" >4</text>
<text x="48" y="156" font-size="10" fill="#AAAAAA" text-anchor="start" font-weight="400" dominant-baseline="central" >Across all companies</text>
<rect x="294" y="108" width="246" height="58" rx="4" fill="#F5F4F1" stroke="#DDDCD8" stroke-width="0.75"/>
<text x="306" y="122" font-size="10" fill="#888684" text-anchor="start" font-weight="400" dominant-baseline="central" >In review queue</text>
<text x="306" y="142" font-size="20" fill="#1A1917" text-anchor="start" font-weight="500" dominant-baseline="central" >1</text>
<text x="306" y="156" font-size="10" fill="#AAAAAA" text-anchor="start" font-weight="400" dominant-baseline="central" >Low confidence, needs approval</text>
<rect x="552" y="108" width="246" height="58" rx="4" fill="#F5F4F1" stroke="#DDDCD8" stroke-width="0.75"/>
<text x="564" y="122" font-size="10" fill="#888684" text-anchor="start" font-weight="400" dominant-baseline="central" >Last scan</text>
<text x="564" y="142" font-size="20" fill="#1A1917" text-anchor="start" font-weight="500" dominant-baseline="central" >Today 09:41</text>
<text x="564" y="156" font-size="10" fill="#AAAAAA" text-anchor="start" font-weight="400" dominant-baseline="central" >Next: Mon 09:00</text>
<text x="36" y="183" font-size="10" fill="#888684" text-anchor="start" font-weight="500" dominant-baseline="central" >Filter:</text>
<rect x="76" y="173" width="114.0" height="22" rx="11" fill="#3A3835" stroke="#3A3835" stroke-width="0.75"/><text x="133.0" y="184" font-size="10" fill="#FFFFFF" text-anchor="middle" font-weight="400" dominant-baseline="central" >All criticality</text>
<rect x="186.0" y="173" width="101.2" height="22" rx="11" fill="#F5F4F1" stroke="#BEBCB8" stroke-width="0.75"/><text x="236.6" y="184" font-size="10" fill="#3A3835" text-anchor="middle" font-weight="400" dominant-baseline="central" >Critical only</text>
<rect x="283.2" y="173" width="69.2" height="22" rx="11" fill="#F5F4F1" stroke="#BEBCB8" stroke-width="0.75"/><text x="317.8" y="184" font-size="10" fill="#3A3835" text-anchor="middle" font-weight="400" dominant-baseline="central" >Upcoming</text>
<rect x="364.4" y="173" width="114.0" height="22" rx="11" fill="#3A3835" stroke="#3A3835" stroke-width="0.75"/><text x="421.4" y="184" font-size="10" fill="#FFFFFF" text-anchor="middle" font-weight="400" dominant-baseline="central" >All regulations</text>
<rect x="474.4" y="173" width="75.6" height="22" rx="11" fill="#F5F4F1" stroke="#BEBCB8" stroke-width="0.75"/><text x="512.1999999999999" y="184" font-size="10" fill="#3A3835" text-anchor="middle" font-weight="400" dominant-baseline="central" >Batteries</text>
<rect x="546.0" y="173" width="43.6" height="22" rx="11" fill="#F5F4F1" stroke="#BEBCB8" stroke-width="0.75"/><text x="567.8" y="184" font-size="10" fill="#3A3835" text-anchor="middle" font-weight="400" dominant-baseline="central" >RoHS</text>
<rect x="585.6" y="173" width="43.6" height="22" rx="11" fill="#F5F4F1" stroke="#BEBCB8" stroke-width="0.75"/><text x="607.4" y="184" font-size="10" fill="#3A3835" text-anchor="middle" font-weight="400" dominant-baseline="central" >GPSR</text>
<rect x="638" y="173" width="148" height="22" rx="11" fill="#F5F4F1" stroke="#BEBCB8" stroke-width="0.5"/>
<text x="712" y="184" font-size="10" fill="#888684" text-anchor="middle" font-weight="400" dominant-baseline="central" >Most critical first</text>
<rect x="36" y="207" width="768" height="28" rx="4" fill="#EDECEA" stroke="#DDDCD8" stroke-width="0.75"/>
<text x="50" y="221" font-size="10" fill="#555453" text-anchor="start" font-weight="500" dominant-baseline="central" >Company</text>
<text x="294" y="221" font-size="10" fill="#555453" text-anchor="middle" font-weight="500" dominant-baseline="central" >Batteries</text>
<text x="378" y="221" font-size="10" fill="#555453" text-anchor="middle" font-weight="500" dominant-baseline="central" >RoHS</text>
<text x="462" y="221" font-size="10" fill="#555453" text-anchor="middle" font-weight="500" dominant-baseline="central" >REACH</text>
<text x="546" y="221" font-size="10" fill="#555453" text-anchor="middle" font-weight="500" dominant-baseline="central" >GPSR</text>
<text x="630" y="221" font-size="10" fill="#555453" text-anchor="middle" font-weight="500" dominant-baseline="central" >WEEE</text>
<text x="714" y="221" font-size="10" fill="#555453" text-anchor="middle" font-weight="500" dominant-baseline="central" ></text>
<rect x="36" y="235" width="768" height="48" rx="0" fill="#FAFAF8" stroke="#E4E2DE" stroke-width="0.5"/>
<text x="50" y="253" font-size="12" fill="#1A1917" text-anchor="start" font-weight="500" dominant-baseline="central" >TechSME GmbH</text>
<text x="50" y="269" font-size="10" fill="#AAAAAA" text-anchor="start" font-weight="400" dominant-baseline="central" >DE  ·  2 prods</text>
<rect x="284" y="249" width="20" height="20" rx="10" fill="#DDDCD8" stroke="#BEBCB8" stroke-width="0.75"/>
<text x="294" y="259" font-size="9" fill="#3A3835" text-anchor="middle" font-weight="500" dominant-baseline="central" >!</text>
<rect x="368" y="249" width="20" height="20" rx="10" fill="#DDDCD8" stroke="#BEBCB8" stroke-width="0.75"/>
<text x="378" y="259" font-size="9" fill="#3A3835" text-anchor="middle" font-weight="500" dominant-baseline="central" >!</text>
<rect x="452" y="249" width="20" height="20" rx="10" fill="#F5F4F1" stroke="#BEBCB8" stroke-width="0.75"/>
<text x="462" y="259" font-size="9" fill="#BEBCB8" text-anchor="middle" font-weight="500" dominant-baseline="central" >✓</text>
<rect x="536" y="249" width="20" height="20" rx="10" fill="#F5F4F1" stroke="#BEBCB8" stroke-width="0.75"/>
<text x="546" y="259" font-size="9" fill="#BEBCB8" text-anchor="middle" font-weight="500" dominant-baseline="central" >✓</text>
<rect x="620" y="249" width="20" height="20" rx="10" fill="#EDECEA" stroke="#BEBCB8" stroke-width="0.75"/>
<text x="630" y="259" font-size="9" fill="#888684" text-anchor="middle" font-weight="500" dominant-baseline="central" >~</text>
<rect x="676" y="247" width="76" height="24" rx="4" fill="#EDECEA" stroke="#AAAAAA" stroke-width="0.75"/>
<text x="714" y="259" font-size="10" fill="#3A3835" text-anchor="middle" font-weight="400" dominant-baseline="central" >View →</text>
<rect x="36" y="287" width="768" height="48" rx="0" fill="#FFFFFF" stroke="#E4E2DE" stroke-width="0.5"/>
<text x="50" y="305" font-size="12" fill="#1A1917" text-anchor="start" font-weight="500" dominant-baseline="central" >Nordic Components AB</text>
<text x="50" y="321" font-size="10" fill="#AAAAAA" text-anchor="start" font-weight="400" dominant-baseline="central" >SE  ·  2 prods</text>
<rect x="284" y="301" width="20" height="20" rx="10" fill="#DDDCD8" stroke="#BEBCB8" stroke-width="0.75"/>
<text x="294" y="311" font-size="9" fill="#3A3835" text-anchor="middle" font-weight="500" dominant-baseline="central" >!</text>
<rect x="368" y="301" width="20" height="20" rx="10" fill="#F5F4F1" stroke="#BEBCB8" stroke-width="0.75"/>
<text x="378" y="311" font-size="9" fill="#BEBCB8" text-anchor="middle" font-weight="500" dominant-baseline="central" >✓</text>
<rect x="452" y="301" width="20" height="20" rx="10" fill="#F5F4F1" stroke="#BEBCB8" stroke-width="0.75"/>
<text x="462" y="311" font-size="9" fill="#BEBCB8" text-anchor="middle" font-weight="500" dominant-baseline="central" >✓</text>
<rect x="536" y="301" width="20" height="20" rx="10" fill="#F5F4F1" stroke="#BEBCB8" stroke-width="0.75"/>
<text x="546" y="311" font-size="9" fill="#BEBCB8" text-anchor="middle" font-weight="500" dominant-baseline="central" >✓</text>
<rect x="620" y="301" width="20" height="20" rx="10" fill="#EDECEA" stroke="#BEBCB8" stroke-width="0.75"/>
<text x="630" y="311" font-size="9" fill="#888684" text-anchor="middle" font-weight="500" dominant-baseline="central" >~</text>
<rect x="676" y="299" width="76" height="24" rx="4" fill="#EDECEA" stroke="#AAAAAA" stroke-width="0.75"/>
<text x="714" y="311" font-size="10" fill="#3A3835" text-anchor="middle" font-weight="400" dominant-baseline="central" >View →</text>
<rect x="36" y="339" width="768" height="48" rx="0" fill="#FAFAF8" stroke="#E4E2DE" stroke-width="0.5"/>
<text x="50" y="357" font-size="12" fill="#1A1917" text-anchor="start" font-weight="500" dominant-baseline="central" >DigiParts BV</text>
<text x="50" y="373" font-size="10" fill="#AAAAAA" text-anchor="start" font-weight="400" dominant-baseline="central" >NL  ·  2 prods</text>
<rect x="284" y="353" width="20" height="20" rx="10" fill="#F5F4F1" stroke="#BEBCB8" stroke-width="0.75"/>
<text x="294" y="363" font-size="9" fill="#BEBCB8" text-anchor="middle" font-weight="500" dominant-baseline="central" >✓</text>
<rect x="368" y="353" width="20" height="20" rx="10" fill="#F5F4F1" stroke="#BEBCB8" stroke-width="0.75"/>
<text x="378" y="363" font-size="9" fill="#BEBCB8" text-anchor="middle" font-weight="500" dominant-baseline="central" >✓</text>
<rect x="452" y="353" width="20" height="20" rx="10" fill="#EDECEA" stroke="#BEBCB8" stroke-width="0.75"/>
<text x="462" y="363" font-size="9" fill="#888684" text-anchor="middle" font-weight="500" dominant-baseline="central" >~</text>
<rect x="536" y="353" width="20" height="20" rx="10" fill="#F5F4F1" stroke="#BEBCB8" stroke-width="0.75"/>
<text x="546" y="363" font-size="9" fill="#BEBCB8" text-anchor="middle" font-weight="500" dominant-baseline="central" >✓</text>
<rect x="620" y="353" width="20" height="20" rx="10" fill="#F5F4F1" stroke="#BEBCB8" stroke-width="0.75"/>
<text x="630" y="363" font-size="9" fill="#BEBCB8" text-anchor="middle" font-weight="500" dominant-baseline="central" >✓</text>
<rect x="676" y="351" width="76" height="24" rx="4" fill="#F5F4F1" stroke="#BEBCB8" stroke-width="0.75"/>
<text x="714" y="363" font-size="10" fill="#888684" text-anchor="middle" font-weight="400" dominant-baseline="central" >View</text>
<rect x="36" y="391" width="768" height="48" rx="0" fill="#FFFFFF" stroke="#E4E2DE" stroke-width="0.5"/>
<text x="50" y="409" font-size="12" fill="#1A1917" text-anchor="start" font-weight="500" dominant-baseline="central" >AutoElec SRL</text>
<text x="50" y="425" font-size="10" fill="#AAAAAA" text-anchor="start" font-weight="400" dominant-baseline="central" >IT  ·  1 prod</text>
<rect x="284" y="405" width="20" height="20" rx="10" fill="#F5F4F1" stroke="#BEBCB8" stroke-width="0.75"/>
<text x="294" y="415" font-size="9" fill="#BEBCB8" text-anchor="middle" font-weight="500" dominant-baseline="central" >✓</text>
<rect x="368" y="405" width="20" height="20" rx="10" fill="#F5F4F1" stroke="#BEBCB8" stroke-width="0.75"/>
<text x="378" y="415" font-size="9" fill="#BEBCB8" text-anchor="middle" font-weight="500" dominant-baseline="central" >✓</text>
<rect x="452" y="405" width="20" height="20" rx="10" fill="#F5F4F1" stroke="#BEBCB8" stroke-width="0.75"/>
<text x="462" y="415" font-size="9" fill="#BEBCB8" text-anchor="middle" font-weight="500" dominant-baseline="central" >✓</text>
<rect x="536" y="405" width="20" height="20" rx="10" fill="#F5F4F1" stroke="#BEBCB8" stroke-width="0.75"/>
<text x="546" y="415" font-size="9" fill="#BEBCB8" text-anchor="middle" font-weight="500" dominant-baseline="central" >✓</text>
<rect x="620" y="405" width="20" height="20" rx="10" fill="#EDECEA" stroke="#BEBCB8" stroke-width="0.75"/>
<text x="630" y="415" font-size="9" fill="#888684" text-anchor="middle" font-weight="500" dominant-baseline="central" >~</text>
<rect x="676" y="403" width="76" height="24" rx="4" fill="#F5F4F1" stroke="#BEBCB8" stroke-width="0.75"/>
<text x="714" y="415" font-size="10" fill="#888684" text-anchor="middle" font-weight="400" dominant-baseline="central" >View</text>
<rect x="36" y="443" width="768" height="48" rx="0" fill="#FAFAF8" stroke="#E4E2DE" stroke-width="0.5"/>
<text x="50" y="461" font-size="12" fill="#1A1917" text-anchor="start" font-weight="500" dominant-baseline="central" >AlphaWave KG</text>
<text x="50" y="477" font-size="10" fill="#AAAAAA" text-anchor="start" font-weight="400" dominant-baseline="central" >AT  ·  2 prods</text>
<rect x="284" y="457" width="20" height="20" rx="10" fill="#F5F4F1" stroke="#BEBCB8" stroke-width="0.75"/>
<text x="294" y="467" font-size="9" fill="#BEBCB8" text-anchor="middle" font-weight="500" dominant-baseline="central" >✓</text>
<rect x="368" y="457" width="20" height="20" rx="10" fill="#F5F4F1" stroke="#BEBCB8" stroke-width="0.75"/>
<text x="378" y="467" font-size="9" fill="#BEBCB8" text-anchor="middle" font-weight="500" dominant-baseline="central" >✓</text>
<rect x="452" y="457" width="20" height="20" rx="10" fill="#F5F4F1" stroke="#BEBCB8" stroke-width="0.75"/>
<text x="462" y="467" font-size="9" fill="#BEBCB8" text-anchor="middle" font-weight="500" dominant-baseline="central" >✓</text>
<rect x="536" y="457" width="20" height="20" rx="10" fill="#DDDCD8" stroke="#BEBCB8" stroke-width="0.75"/>
<text x="546" y="467" font-size="9" fill="#3A3835" text-anchor="middle" font-weight="500" dominant-baseline="central" >!</text>
<rect x="620" y="457" width="20" height="20" rx="10" fill="#EDECEA" stroke="#BEBCB8" stroke-width="0.75"/>
<text x="630" y="467" font-size="9" fill="#888684" text-anchor="middle" font-weight="500" dominant-baseline="central" >~</text>
<rect x="676" y="455" width="76" height="24" rx="4" fill="#EDECEA" stroke="#AAAAAA" stroke-width="0.75"/>
<text x="714" y="467" font-size="10" fill="#3A3835" text-anchor="middle" font-weight="400" dominant-baseline="central" >View →</text>
<rect x="36" y="501" width="610" height="28" rx="4" fill="#F5F4F1" stroke="#E4E2DE" stroke-width="0.5"/>
<text x="50" y="515" font-size="10" fill="#888684" text-anchor="start" font-weight="500" dominant-baseline="central" >Legend:</text>
<text x="110" y="515" font-size="10" fill="#555453" text-anchor="start" font-weight="400" dominant-baseline="central" >!  Critical gap</text>
<text x="248" y="515" font-size="10" fill="#555453" text-anchor="start" font-weight="400" dominant-baseline="central" >~  Upcoming gap</text>
<text x="386" y="515" font-size="10" fill="#555453" text-anchor="start" font-weight="400" dominant-baseline="central" >✓  Compliant</text>
<text x="524" y="515" font-size="10" fill="#555453" text-anchor="start" font-weight="400" dominant-baseline="central" >—  Not assessed</text>
<rect x="654" y="501" width="150" height="28" rx="4" fill="#3A3835" stroke="none" stroke-width="0.75"/>
<text x="729" y="515" font-size="11" fill="#FFFFFF" text-anchor="middle" font-weight="400" dominant-baseline="central" >Run scan now</text>
<circle cx="756" cy="108" r="9" fill="#3A6FBF"/><text x="756" y="108" font-size="9" fill="white" text-anchor="middle" dominant-baseline="central" font-weight="500">1</text>
<rect x="558" y="90" width="196" height="64" rx="3" fill="#EEF3FB" stroke="#3A6FBF" stroke-width="0.5"/>
<text x="563" y="99" font-size="9.5" fill="#1A3F80" dominant-baseline="central">KPI strip: situational awareness</text>
<text x="563" y="113" font-size="9.5" fill="#1A3F80" dominant-baseline="central">before looking at individual</text>
<text x="563" y="127" font-size="9.5" fill="#1A3F80" dominant-baseline="central">companies. Critical count is the</text>
<text x="563" y="141" font-size="9.5" fill="#1A3F80" dominant-baseline="central">most important number.</text>
<circle cx="712" cy="184" r="9" fill="#3A6FBF"/><text x="712" y="184" font-size="9" fill="white" text-anchor="middle" dominant-baseline="central" font-weight="500">2</text>
<rect x="510" y="166" width="200" height="50" rx="3" fill="#EEF3FB" stroke="#3A6FBF" stroke-width="0.5"/>
<text x="515" y="175" font-size="9.5" fill="#1A3F80" dominant-baseline="central">Default sort is most-critical-first —</text>
<text x="515" y="189" font-size="9.5" fill="#1A3F80" dominant-baseline="central">staff should always look at red rows,</text>
<text x="515" y="203" font-size="9.5" fill="#1A3F80" dominant-baseline="central">not alphabetical order.</text>
<circle cx="420" cy="221" r="9" fill="#3A6FBF"/><text x="420" y="221" font-size="9" fill="white" text-anchor="middle" dominant-baseline="central" font-weight="500">3</text>
<rect x="296" y="201" width="200" height="50" rx="3" fill="#EEF3FB" stroke="#3A6FBF" stroke-width="0.5"/>
<text x="301" y="210" font-size="9.5" fill="#1A3F80" dominant-baseline="central">Matrix view: company (row) x</text>
<text x="301" y="224" font-size="9.5" fill="#1A3F80" dominant-baseline="central">regulation family (column). Entire</text>
<text x="301" y="238" font-size="9.5" fill="#1A3F80" dominant-baseline="central">portfolio status in a single table.</text>
<circle cx="756" cy="259" r="9" fill="#3A6FBF"/><text x="756" y="259" font-size="9" fill="white" text-anchor="middle" dominant-baseline="central" font-weight="500">4</text>
<rect x="554" y="241" width="196" height="50" rx="3" fill="#EEF3FB" stroke="#3A6FBF" stroke-width="0.5"/>
<text x="559" y="250" font-size="9.5" fill="#1A3F80" dominant-baseline="central">Critical companies float to top.</text>
<text x="559" y="264" font-size="9.5" fill="#1A3F80" dominant-baseline="central">Staff attention goes to red rows</text>
<text x="559" y="278" font-size="9.5" fill="#1A3F80" dominant-baseline="central">first — no manual scanning required.</text>
<circle cx="756" cy="363" r="9" fill="#3A6FBF"/><text x="756" y="363" font-size="9" fill="white" text-anchor="middle" dominant-baseline="central" font-weight="500">5</text>
<rect x="554" y="345" width="196" height="50" rx="3" fill="#EEF3FB" stroke="#3A6FBF" stroke-width="0.5"/>
<text x="559" y="354" font-size="9.5" fill="#1A3F80" dominant-baseline="central">'~' (upcoming) vs '!' (critical)</text>
<text x="559" y="368" font-size="9.5" fill="#1A3F80" dominant-baseline="central">uses symbols not just color —</text>
<text x="559" y="382" font-size="9.5" fill="#1A3F80" dominant-baseline="central">accessible for color-blind users.</text>
<circle cx="729" cy="515" r="9" fill="#3A6FBF"/><text x="729" y="515" font-size="9" fill="white" text-anchor="middle" dominant-baseline="central" font-weight="500">6</text>
<rect x="526" y="497" width="196" height="64" rx="3" fill="#EEF3FB" stroke="#3A6FBF" stroke-width="0.5"/>
<text x="531" y="506" font-size="9.5" fill="#1A3F80" dominant-baseline="central">Manual scan gives admins control</text>
<text x="531" y="520" font-size="9.5" fill="#1A3F80" dominant-baseline="central">outside the weekly schedule —</text>
<text x="531" y="534" font-size="9.5" fill="#1A3F80" dominant-baseline="central">critical before client meetings or</text>
<text x="531" y="548" font-size="9.5" fill="#1A3F80" dominant-baseline="central">demos.</text>
<line x1="36" y1="541" x2="804" y2="541" stroke="#E4E2DE" stroke-width="0.75" />
<text x="36" y="557" font-size="10" fill="#888684" text-anchor="start" font-weight="500" dominant-baseline="central" >UX decisions annotated:</text>
<circle cx="52" cy="577" r="9" fill="#3A6FBF"/><text x="52" y="577" font-size="9" fill="white" text-anchor="middle" dominant-baseline="central" font-weight="500">1</text>
<text x="66" y="577" font-size="10" fill="#555453" text-anchor="start" font-weight="400" dominant-baseline="central" >1 — KPI strip = instant situational awareness</text>
<circle cx="302" cy="577" r="9" fill="#3A6FBF"/><text x="302" y="577" font-size="9" fill="white" text-anchor="middle" dominant-baseline="central" font-weight="500">2</text>
<text x="316" y="577" font-size="10" fill="#555453" text-anchor="start" font-weight="400" dominant-baseline="central" >2 — Default sort = most critical first</text>
<circle cx="552" cy="577" r="9" fill="#3A6FBF"/><text x="552" y="577" font-size="9" fill="white" text-anchor="middle" dominant-baseline="central" font-weight="500">3</text>
<text x="566" y="577" font-size="10" fill="#555453" text-anchor="start" font-weight="400" dominant-baseline="central" >3 — Matrix = full portfolio in one view</text>
<circle cx="52" cy="601" r="9" fill="#3A6FBF"/><text x="52" y="601" font-size="9" fill="white" text-anchor="middle" dominant-baseline="central" font-weight="500">4</text>
<text x="66" y="601" font-size="10" fill="#555453" text-anchor="start" font-weight="400" dominant-baseline="central" >4 — Critical companies surface automatically</text>
<circle cx="302" cy="601" r="9" fill="#3A6FBF"/><text x="302" y="601" font-size="9" fill="white" text-anchor="middle" dominant-baseline="central" font-weight="500">5</text>
<text x="316" y="601" font-size="10" fill="#555453" text-anchor="start" font-weight="400" dominant-baseline="central" >5 — Symbols for accessibility (not color alone)</text>
<circle cx="552" cy="601" r="9" fill="#3A6FBF"/><text x="552" y="601" font-size="9" fill="white" text-anchor="middle" dominant-baseline="central" font-weight="500">6</text>
<text x="566" y="601" font-size="10" fill="#555453" text-anchor="start" font-weight="400" dominant-baseline="central" >6 — Manual scan for ad-hoc control</text>
</svg>